# xmcd
#
# Track frame offsets:
#	150
#	14695
#	29177
#	45867
#
# Disc length: 832 seconds
#
# Revision: 0
# Processed by: cddbd v1.4PL0 Copyright (c) Steve Scherf et al.
# Submitted via: audiograbber 1.80
#
DISCID=2d033e04
DTITLE=N Sync - Its Gonna Be Me
DYEAR=1900
DGENRE=
TTITLE0=Its Gonna Be Me
TTITLE1=Its Gonna Be Me (Instr)
TTITLE2=This Is Where The Party Is At
TTITLE3=Bye Bye Bye (Teddy Riley Remix)
EXTD=
EXTT0=
EXTT1=
EXTT2=
EXTT3=
PLAYORDER=
